<svg version="1.1" xmlns="http://www.w3.org/2000/svg" xmlns:xlink="http://www.w3.org/1999/xlink" width="1560" height="804"><defs/><g><path fill="none" stroke="#02063B" paint-order="fill stroke markers" d=" M 20 464.63964016674015 L 21 467.7375746578632 L 22 470.8305384752294 L 23 473.9182977478122 L 24 477.0006189981206 L 25 480.077269159854 L 26 483.1480155955245 L 27 486.2126261140482 L 28 489.2708689883016 L 29 492.3225129726435 L 30 495.3673273204006 L 31 498.4050818013149 L 32 501.4355467189524 L 33 504.45849292807145 L 34 507.473691851949 L 35 510.4809154996645 L 36 513.479936483339 L 37 516.4705280353289 L 38 519.4524640253729 L 39 522.4255189776902 L 40 525.3894680880298 L 41 528.344087240669 L 42 531.2891530253592 L 43 534.2244427542196 L 44 537.1497344785744 L 45 540.0648070057365 L 46 542.9694399157315 L 47 545.8634135779653 L 48 548.7465091678309 L 49 551.618508683255 L 50 554.4791949611811 L 51 557.3283516939908 L 52 560.1657634458599 L 53 562.9912156690473 L 54 565.8044947201187 L 55 568.6053878761006 L 56 571.3936833505653 L 57 574.1691703096448 L 58 576.9316388879726 L 59 579.6808802045528 L 60 582.416686378554 L 61 585.1388505450287 L 62 587.8471668705541 L 63 590.5414305687968 L 64 593.2214379159973 L 65 595.8869862663737 L 66 598.537874067446 L 67 601.1739008752746 L 68 603.7948673696179 L 69 606.4005753690028 L 70 608.9908278457107 L 71 611.565428940675 L 72 614.1241839782911 L 73 616.6668994811362 L 74 619.1933831845993 L 75 621.703444051419 L 76 624.1968922861283 L 77 626.673539349406 L 78 629.1331979723328 L 79 631.5756821705515 L 80 634.0008072583298 L 81 636.4083898625257 L 82 638.7982479364522 L 83 641.1702007736432 L 84 643.5240690215169 L 85 645.8596746949381 L 86 648.1768411896758 L 87 650.4753932957567 L 88 652.7551572107143 L 89 655.0159605527299 L 90 657.2576323736678 L 91 659.4800031720008 L 92 661.6829049056273 L 93 663.8661710045773 L 94 666.0296363836076 L 95 668.1731374546844 L 96 670.2965121393527 L 97 672.3995998809926 L 98 674.482241656958 L 99 676.5442799906023 L 100 678.5855589631851 L 101 680.6059242256623 L 102 682.6052230103566 L 103 684.583304142509 L 104 686.5400180517099 L 105 688.4752167832085 L 106 690.3887540091 L 107 692.2804850393911 L 108 694.1502668329388 L 109 695.9979580082679 L 110 697.8234188542606 L 111 699.6265113407209 L 112 701.4070991288112 L 113 703.1650475813619 L 114 704.9002237730517 L 115 706.6124965004585 L 116 708.3017362919801 L 117 709.9678154176243 L 118 711.6106078986667 L 119 713.2299895171772 L 120 714.8258378254116 L 121 716.3980321550711 L 122 717.9464536264261 L 123 719.4709851573056 L 124 720.9715114719495 L 125 722.4479191097257 L 126 723.9000964337092 L 127 725.3279336391231 L 128 726.7313227616416 L 129 728.1101576855536 L 130 729.4643341517865 L 131 730.7937497657897 L 132 732.0983040052765 L 133 733.3778982278261 L 134 734.6324356783412 L 135 735.8618214963648 L 136 737.0659627232525 L 137 738.2447683092016 L 138 739.3981491201359 L 139 740.5260179444456 L 140 741.6282894995807 L 141 742.7048804385013 L 142 743.7557093559778 L 143 744.7806967947481 L 144 745.7797652515243 L 145 746.7528391828537 L 146 747.699845010831 L 147 748.6207111286614 L 148 749.5153679060752 L 149 750.383747694593 L 150 751.225784832641 L 151 752.0414156505151 L 152 752.8305784751964 L 153 753.5932136350135 L 154 754.3292634641552 L 155 755.0386723070305 L 156 755.7213865224769 L 157 756.3773544878168 L 158 757.0065266027602 L 159 757.6088552931562 L 160 758.184295014589 L 161 758.7328022558225 L 162 759.2543355420908 L 163 759.748855438233 L 164 760.2163245516758 L 165 760.6567075352611 L 166 761.0699710899185 L 167 761.4560839671825 L 168 761.8150169715566 L 169 762.14674296272 L 170 762.45123685758 L 171 762.7284756321686 L 172 762.9784383233836 L 173 763.2011060305733 L 174 763.3964619169665 L 175 763.5644912109442 L 176 763.7051812071579 L 177 763.81852126749 L 178 763.9045028218572 L 179 763.9631193688601 L 180 763.9943664762732 L 181 763.9982417813812 L 182 763.9747449911573 L 183 763.9238778822852 L 184 763.8456443010248 L 185 763.7400501629218 L 186 763.6071034523593 L 187 763.4468142219557 L 188 763.2591945918032 L 189 763.0442587485518 L 190 762.8020229443368 L 191 762.5325054955499 L 192 762.2357267814536 L 193 761.9117092426411 L 194 761.5604773793393 L 195 761.1820577495555 L 196 760.77647896707 L 197 760.3437716992726 L 198 759.883968664843 L 199 759.3971046312774 L 200 758.8832164122596 L 201 758.3423428648769 L 202 757.7745248866821 L 203 757.1798054126018 L 204 756.558229411689 L 205 755.9098438837232 L 206 755.2346978556565 L 207 754.5328423779067 L 208 753.8043305204967 L 209 753.0492173690425 L 210 752.2675600205866 L 211 751.4594175792823 L 212 750.6248511519234 L 213 749.7639238433243 L 214 748.8767007515478 L 215 747.9632489629835 L 216 747.0236375472746 L 217 746.0579375520958 L 218 745.0662219977805 L 219 744.0485658717996 L 220 743.0050461230921 L 221 741.9357416562457 L 222 740.8407333255307 L 223 739.720103928787 L 224 738.5739382011631 L 225 737.4023228087083 L 226 736.2053463418204 L 227 734.9830993085466 L 228 733.7356741277399 L 229 732.4631651220712 L 230 731.1656685108967 L 231 729.8432824029829 L 232 728.4961067890877 L 233 727.1242435344002 L 234 725.7277963708382 L 235 724.3068708892039 L 236 722.8615745312011 L 237 721.3920165813097 L 238 719.8983081585236 L 239 718.3805622079475 L 240 716.8388934922571 L 241 715.2734185830213 L 242 713.6842558518886 L 243 712.0715254616348 L 244 710.4353493570791 L 245 708.7758512558617 L 246 707.09315663909 L 247 705.3873927418501 L 248 703.6586885435862 L 249 701.9071747583479 L 250 700.1329838249062 L 251 698.3362498967397 L 252 696.5171088318907 L 253 694.6756981826916 L 254 692.8121571853657 L 255 690.9266267494972 L 256 689.0192494473777 L 257 687.090169503225 L 258 685.1395327822786 L 259 683.1674867797692 L 260 681.1741806097671 L 261 679.159764993906 L 262 677.1243922499877 L 263 675.0682162804632 L 264 672.9913925607966 L 265 670.894078127709 L 266 668.7764315673035 L 267 666.6386130030749 L 268 664.4807840838016 L 269 662.3031079713226 L 270 660.1057493282004 L 271 657.8888743052707 L 272 655.6526505290778 L 273 653.3972470892014 L 274 651.1228345254693 L 275 648.8295848150638 L 276 646.5176713595166 L 277 644.1872689715983 L 278 641.8385538620992 L 279 639.4717036265058 L 280 637.0868972315723 L 281 634.6843150017876 L 282 632.2641386057408 L 283 629.8265510423845 L 284 627.371736627197 L 285 624.8998809782463 L 286 622.4111710021542 L 287 619.9057948799637 L 288 617.3839420529098 L 289 614.8458032080958 L 290 612.2915702640736 L 291 609.7214363563328 L 292 607.1355958226967 L 293 604.5342441886276 L 294 601.9175781524425 L 295 599.2857955704399 L 296 596.6390954419394 L 297 593.9776778942336 L 298 591.3017441674575 L 299 588.61149659937 L 300 585.9071386100557 L 301 583.1888746865425 L 302 580.4569103673407 L 303 577.7114522269005 L 304 574.9527078599924 L 305 572.1808858660104 L 306 569.3961958331982 L 307 566.598848322803 L 308 563.7890548531522 L 309 560.9670278836606 L 310 558.1329807987663 L 311 555.2871278917944 L 312 552.4296843487543 L 313 549.5608662320685 L 314 546.6808904642353 L 315 543.7899748114262 L 316 540.8883378670205 L 317 537.9761990350756 L 318 535.0537785137376 L 319 532.121297278591 L 320 529.1789770659502 L 321 526.227040356093 L 322 523.2657103564377 L 323 520.2952109846658 L 324 517.3157668517913 L 325 514.3276032451756 L 326 511.3309461114939 L 327 508.32602203964984 L 328 505.31305824364244 L 329 502.29228254538555 L 330 499.2639233574814 L 331 496.22820966594924 L 332 493.18537101291093 L 333 490.1356374792348 L 334 487.0792396671375 L 335 484.0164086827476 L 336 480.9473761186314 L 337 477.87237403628023 L 338 474.79163494856414 L 339 471.70539180215053 L 340 468.6138779598899 L 341 465.5173271831707 L 342 462.41597361424374 L 343 459.3100517585174 L 344 456.199796466826 L 345 453.0854429176719 L 346 449.9672265994427 L 347 446.8453832926048 L 348 443.7201490518755 L 349 440.5917601883738 L 350 437.46045325175174 L 351 434.3264650123087 L 352 431.19003244308743 L 353 428.05139270195605 L 354 424.9107831136755 L 355 421.76844115195456 L 356 418.6246044214936 L 357 415.47951064001813 L 358 412.33339762030425 L 359 409.1865032521964 L 360 406.0390654846204 L 361 402.89132230759003 L 362 399.7435117342125 L 363 396.5958717826911 L 364 393.44864045832776 L 365 390.30205573552644 L 366 387.1563555397991 L 367 384.0117777297752 L 368 380.868560079216 L 369 377.7269402590364 L 370 374.58715581933257 L 371 371.44944417142057 L 372 368.3140425698847 L 373 365.1811880946376 L 374 362.05111763299374 L 375 358.92406786175764 L 376 355.80027522932727 L 377 352.67997593781644 L 378 349.56340592519314 L 379 346.4508008474403 L 380 343.34239606073675 L 381 340.238426603661 L 382 337.1391271794189 L 383 334.0447321380971 L 384 330.95547545894266 L 385 327.87159073267094 L 386 324.79331114380363 L 387 321.7208694530356 L 388 318.6544979796357 L 389 315.59442858388 L 390 312.5408926495202 L 391 309.4941210662871 L 392 306.45434421243306 L 393 303.42179193731147 L 394 300.39669354399723 L 395 297.3792777719485 L 396 294.3697727797103 L 397 291.36840612766287 L 398 288.37540476081483 L 399 285.3909949916432 L 400 282.41540248298077 L 401 279.448852230953 L 402 276.49156854796496 L 403 273.5437750457406 L 404 270.60569461841453 L 405 267.6775494256776 L 406 264.75956087597933 L 407 261.85194960978544 L 408 258.95493548289534 L 409 256.06873754981723 L 410 253.19357404720503 L 411 250.32966237735627 L 412 247.47721909177352 L 413 244.63645987479072 L 414 241.80759952726342 L 415 238.9908519503275 L 416 236.18643012922522 L 417 233.39454611720038 L 418 230.61541101946435 L 419 227.84923497723344 L 420 225.09622715183934 L 421 222.35659570891357 L 422 219.6305478026477 L 423 216.9182895601289 L 424 214.2200260657542 L 425 211.53596134572348 L 426 208.8662983526119 L 427 206.21123895002407 L 428 203.57098389733036 L 429 200.9457328344866 L 430 198.33568426693842 L 431 195.74103555061214 L 432 193.16198287699083 L 433 190.5987212582805 L 434 188.05144451266383 L 435 185.52034524964515 L 436 183.00561485548644 L 437 180.50744347873575 L 438 178.02602001584933 L 439 175.56153209690882 L 440 173.11416607143326 L 441 170.68410699428867 L 442 168.27153861169546 L 443 165.87664334733464 L 444 163.4996022885539 L 445 161.14059517267498 L 446 158.79980037340317 L 447 156.47739488733941 L 448 154.17355432059753 L 449 151.88845287552522 L 450 149.62226333753236 L 451 147.3751570620261 L 452 145.1473039614537 L 453 142.93887249245506 L 454 140.75002964312495 L 455 138.58094092038647 L 456 136.43177033747605 L 457 134.3026804015426 L 458 132.1938321013588 L 459 130.10538489514863 L 460 128.03749669853 L 461 125.99032387257392 L 462 123.96402121198213 L 463 121.95874193338125 L 464 119.97463766373914 L 465 118.01185842889777 L 466 116.07055264223135 L 467 114.15086709342211 L 468 112.25294693736294 L 469 110.37693568317985 L 470 108.52297518338224 L 471 106.691205623136 L 472 104.88176550966324 L 473 103.09479166177061 L 474 101.33041919950222 L 475 99.58878153392408 L 476 97.87001035703526 L 477 96.1742356318112 L 478 94.50158558237564 L 479 92.85218668430599 L 480 91.22616365506968 L 481 89.62363944459344 L 482 88.0447352259672 L 483 86.48957038628106 L 484 84.95826251759894 L 485 83.45092740806558 L 486 81.96767903315288 L 487 80.50862954704047 L 488 79.07388927413615 L 489 77.66356670073372 L 490 76.27776846680905 L 491 74.9165993579582 L 492 73.58016229747244 L 493 72.26855833855728 L 494 70.98188665669028 L 495 69.72024454212311 L 496 68.48372739252386 L 497 67.27242870576481 L 498 66.08644007285193 L 499 64.92585117099947 L 500 63.79074975684949 L 501 62.68122165983556 L 502 61.59735077569354 L 503 60.539219060117546 L 504 59.50690652256304 L 505 58.50049122019681 L 506 57.520049251995204 L 507 56.5656547529897 L 508 55.63737988866103 L 509 54.73529484948318 L 510 53.85946784561503 L 511 53.00996510174383 L 512 52.18685085207659 L 513 51.39018733548403 L 514 50.62003479079374 L 515 49.87645145223581 L 516 49.159493545039254 L 517 48.46921528118048 L 518 47.80566885528452 L 519 47.16890444067786 L 520 46.55897018559523 L 521 45.97591220953831 L 522 45.41977459978898 L 523 44.89059940807556 L 524 44.38842664739275 L 525 43.913294288976715 L 526 43.465238259433306 L 527 43.04429243802218 L 528 42.65048865409426 L 529 42.28385668468587 L 530 41.944424252266344 L 531 41.63221702264252 L 532 41.34725860301751 L 533 41.089570540205955 L 534 40.85917231900487 L 535 40.65608136072001 L 536 40.480313021848815 L 537 40.33188059291916 L 538 40.21079529748448 L 539 40.117066291274966 L 540 40.0507006615054 L 541 40.011703426339295 L 542 40.00007753450927 L 543 40.01582386509426 L 544 40.05894122745292 L 545 40.12942636131373 L 546 40.22727393702161 L 547 40.3524765559406 L 548 40.50502475101365 L 549 40.68490698747826 L 550 40.89210966373878 L 551 41.12661711239474 L 552 41.38841160142567 L 553 41.67747333553183 L 554 41.99378045763086 L 555 42.33730905051095 L 556 42.7080331386386 L 557 43.105924690123345 L 558 43.53095361883709 L 559 43.983087786689 L 560 44.462293006055745 L 561 44.96853304236646 L 562 45.50176961684264 L 563 46.06196240939232 L 564 46.64906906165936 L 565 47.263045180225504 L 566 47.9038443399682 L 567 48.571418087569896 L 568 49.26571594518248 L 569 49.98668541424405 L 570 50.73427197944818 L 571 51.508419112866534 L 572 52.30906827822247 L 573 53.136158935318065 L 574 53.98962854461092 L 575 54.86941257194388 L 576 55.77544449342395 L 577 56.7076558004527 L 578 57.66597600490684 L 579 58.65033264446748 L 580 59.660651288099814 L 581 60.69685554168058 L 582 61.758867053775305 L 583 62.84660552156174 L 584 63.95998869690305 L 585 65.09893239256587 L 586 66.26335048858647 L 587 67.45315493878286 L 588 68.66825577741167 L 589 69.90856112597174 L 590 71.17397720015032 L 591 72.46440831691535 L 592 73.7797569017498 L 593 75.11992349603037 L 594 76.4848067645471 L 595 77.87430350316612 L 596 79.28830864663388 L 597 80.72671527652028 L 598 82.18941462930457 L 599 83.67629610459801 L 600 85.18724727350826 L 601 86.72215388713909 L 602 88.28089988523055 L 603 89.86336740493368 L 604 91.46943678972292 L 605 93.0989865984443 L 606 94.75189361449708 L 607 96.42803285515186 L 608 98.12727758099976 L 609 99.84949930553677 L 610 101.59456780487812 L 611 103.36235112760613 L 612 105.15271560474639 L 613 106.96552585987564 L 614 108.80064481935852 L 615 110.65793372271105 L 616 112.53725213309428 L 617 114.43845794793168 L 618 116.36140740965584 L 619 118.30595511657674 L 620 120.27195403387788 L 621 122.25925550473266 L 622 124.26770926154552 L 623 126.2971634373148 L 624 128.34746457711486 L 625 130.41845764970066 L 626 132.50998605922882 L 627 134.62189165710015 L 628 136.754014753916 L 629 138.90619413155508 L 630 141.07826705536172 L 631 143.27006928645199 L 632 145.48143509413308 L 633 147.71219726843285 L 634 149.96218713274553 L 635 152.23123455658398 L 636 154.51916796844577 L 637 156.82581436878468 L 638 159.15099934309268 L 639 161.4945470750887 L 640 163.85628036001125 L 641 166.23602061801938 L 642 168.63358790769382 L 643 171.04880093964508 L 644 173.48147709021958 L 645 175.93143241531024 L 646 178.3984816642637 L 647 180.88243829388853 L 648 183.38311448256118 L 649 185.90032114442624 L 650 188.4338679436959 L 651 190.98356330903997 L 652 193.54921444807334 L 653 196.13062736193186 L 654 198.7276068599432 L 655 201.33995657438433 L 656 203.96747897533035 L 657 206.6099753855912 L 658 209.26724599573282 L 659 211.93908987918743 L 660 214.62530500744418 L 661 217.32568826532776 L 662 220.0400354663542 L 663 222.76814136817265 L 664 225.50979968808258 L 665 228.26480311863233 L 666 231.0329433432953 L 667 233.81401105221983 L 668 236.60779595805786 L 669 239.4140868118635 L 670 242.23267141906868 L 671 245.0633366555256 L 672 247.90586848362423 L 673 250.76005196847458 L 674 253.62567129415953 L 675 256.50250978005437 L 676 259.3903498972089 L 677 262.2889732847981 L 678 265.1981607666305 L 679 268.11769236772375 L 680 271.047347330935 L 681 273.986904133656 L 682 276.936140504561 L 683 279.89483344041435 L 684 282.86275922293356 L 685 285.8396934357037 L 686 288.8254109811483 L 687 291.819686097548 L 688 294.8222923761134 L 689 297.8330027781021 L 690 300.85158965198883 L 691 303.87782475067655 L 692 306.9114792487563 L 693 309.9523237598104 L 694 313.0001283537549 L 695 316.05466257422853 L 696 319.11569545601515 L 697 322.18299554251087 L 698 325.2563309032231 L 699 328.33546915130955 L 700 331.4201774611484 L 701 334.51022258594367 L 702 337.60537087536295 L 703 340.70538829320253 L 704 343.81004043508614 L 705 346.9190925461868 L 706 350.03230953898 L 707 353.14945601101687 L 708 356.2702962627269 L 709 359.39459431523744 L 710 362.522113928218 L 711 365.65261861774434 L 712 368.7858716741779 L 713 371.9216361800663 L 714 375.05967502805584 L 715 378.1997509388219 L 716 381.3416264790086 L 717 384.48506407918416 L 718 387.6298260518025 L 719 390.77567460917663 L 720 393.9223718814595 L 721 397.0696799346283 L 722 400.21736078847783 L 723 403.36517643461275 L 724 406.5128888544468 L 725 409.660260037198 L 726 412.8070519978876 L 727 415.95302679533324 L 728 419.0979465501416 L 729 422.24157346269595 L 730 425.3836698311353 L 731 428.5239980693302 L 732 431.66232072484536 L 733 434.7984004968963 L 734 437.93200025429076 L 735 441.06288305336113 L 736 444.1908121558787 L 737 447.3155510469552 L 738 450.4368634529276 L 739 453.5545133592216 L 740 456.66826502819976 L 741 459.77788301698456 L 742 462.8831321952633 L 743 465.9837777630645 L 744 469.07958526851525 L 745 472.17032062556615 L 746 475.2557501316927 L 747 478.3356404855675 L 748 481.4097588046987 L 749 484.47787264304156 L 750 487.53975000857236 L 751 490.5951593808327 L 752 493.64386972843306 L 753 496.68565052652366 L 754 499.72027177422547 L 755 502.74750401201993 L 756 505.76711833910133 L 757 508.77888643068275 L 758 511.7825805552627 L 759 514.7779735918427 L 760 517.7648390471031 L 761 520.7429510725266 L 762 523.7120844814772 L 763 526.6720147662274 L 764 529.6225181149332 L 765 532.5633714285585 L 766 535.4943523377431 L 767 538.4152392196187 L 768 541.3258112145645 L 769 544.2258482429096 L 770 547.1151310215722 L 771 549.9934410806409 L 772 552.8605607798954 L 773 555.7162733252608 L 774 558.5603627852025 L 775 561.3926141070517 L 776 564.2128131332682 L 777 567.0207466176319 L 778 569.8162022413688 L 779 572.598968629204 L 780 575.3688353653448 L 781 578.1255930093923 L 782 580.8690331121761 L 783 583.5989482315177 L 784 586.3151319479144 L 785 589.0173788801492 L 786 591.7054847008185 L 787 594.3792461517842 L 788 597.0384610595413 L 789 599.6829283505051 L 790 602.3124480662168 L 791 604.9268213784603 L 792 607.5258506042996 L 793 610.1093392210236 L 794 612.6770918810076 L 795 615.2289144264837 L 796 617.7646139042221 L 797 620.2839985801207 L 798 622.7868779537027 L 799 625.2730627725224 L 800 627.7423650464732 L 801 630.1945980620042 L 802 632.6295763962371 L 803 635.0471159309875 L 804 637.4470338666861 L 805 639.8291487362017 L 806 642.1932804185617 L 807 644.5392501525724 L 808 646.8668805503363 L 809 649.1759956106632 L 810 651.4664207323809 L 811 653.7379827275352 L 812 655.9905098344868 L 813 658.2238317308982 L 814 660.4377795466125 L 815 662.6321858764229 L 816 664.8068847927293 L 817 666.961711858087 L 818 669.0965041376385 L 819 671.2111002114348 L 820 673.30534018664 L 821 675.3790657096229 L 822 677.432119977929 L 823 679.4643477521386 L 824 681.4755953676033 L 825 683.4657107460669 L 826 685.4345434071633 L 827 687.3819444797957 L 828 689.3077667133934 L 829 691.2118644890451 L 830 693.0940938305107 L 831 694.9543124151069 L 832 696.7923795844704 L 833 698.6081563551916 L 834 700.4015054293247 L 835 702.1722912047703 L 836 703.9203797855264 L 837 705.6456389918153 L 838 707.3479383700765 L 839 709.0271492028318 L 840 710.6831445184172 L 841 712.315799100585 L 842 713.9249894979706 L 843 715.5105940334278 L 844 717.0724928132295 L 845 718.6105677361322 L 846 720.1247025023082 L 847 721.6147826221368 L 848 723.0806954248637 L 849 724.522330067119 L 850 725.9395775412991 L 851 727.332330683809 L 852 728.7004841831651 L 853 730.0439345879593 L 854 731.3625803146797 L 855 732.6563216553932 L 856 733.925060785284 L 857 735.1687017700509 L 858 736.3871505731606 L 859 737.5803150629595 L 860 738.7481050196384 L 861 739.8904321420557 L 862 741.0072100544139 L 863 742.0983543127902 L 864 743.1637824115227 L 865 744.2034137894477 L 866 745.2171698359926 L 867 746.2049738971189 L 868 747.1667512811184 L 869 748.1024292642619 L 870 749.0119370962967 L 871 749.8952060057977 L 872 750.7521692053664 L 873 751.5827618966814 L 874 752.386921275398 L 875 753.1645865358976 L 876 753.9156988758839 L 877 754.6402015008313 L 878 755.3380396282777 L 879 756.0091604919674 L 880 756.6535133458412 L 881 757.271049467873 L 882 757.8617221637544 L 883 758.4254867704248 L 884 758.9623006594492 L 885 759.472123240241 L 886 759.9549159631316 L 887 760.4106423222851 L 888 760.8392678584584 L 889 761.2407601616073 L 890 761.6150888733371 L 891 761.9622256891972 L 892 762.2821443608229 L 893 762.5748206979187 L 894 762.8402325700881 L 895 763.0783599085071 L 896 763.2891847074411 L 897 763.472691025607 L 898 763.6288649873782 L 899 763.7576947838336 L 900 763.8591706736515 L 901 763.9332849838449 L 902 763.9800321103428 L 903 763.9994085184126 L 904 763.9914127429288 L 905 763.9560453884835 L 906 763.8933091293395 L 907 763.8032087092297 L 908 763.6857509409972 L 909 763.5409447060811 L 910 763.3688009538437 L 911 763.1693327007441 L 912 762.9425550293529 L 913 762.6884850872119 L 914 762.407142085538 L 915 762.09854729777 L 916 761.7627240579602 L 917 761.3996977590102 L 918 761.0094958507511 L 919 760.5921478378668 L 920 760.1476852776642 L 921 759.6761417776867 L 922 759.1775529931726 L 923 758.6519566243596 L 924 758.0993924136341 L 925 757.5199021425253 L 926 756.9135296285472 L 927 756.2803207218844 L 928 755.620323301926 L 929 754.9335872736439 L 930 754.2201645638213 L 931 753.4801091171247 L 932 752.7134768920253 L 933 751.9203258565677 L 934 751.1007159839878 L 935 750.2547092481765 L 936 749.3823696189941 L 937 748.4837630574334 L 938 747.5589575106328 L 939 746.6080229067372 L 940 745.6310311496113 L 941 744.6280561134029 L 942 743.5991736369563 L 943 742.5444615180779 L 944 741.4639995076541 L 945 740.3578693036211 L 946 739.2261545447868 L 947 738.0689408045063 L 948 736.886315584213 L 949 735.6783683068002 L 950 734.4451903098608 L 951 733.1868748387803 L 952 731.9035170396874 L 953 730.5952139522572 L 954 729.262064502376 L 955 727.9041694946599 L 956 726.5216316048334 L 957 725.1145553719645 L 958 723.6830471905607 L 959 722.2272153025255 L 960 720.747169788971 L 961 719.243022561896 L 962 717.7148873557239 L 963 716.1628797187032 L 964 714.5871170041685 L 965 712.9877183616686 L 966 711.3648047279576 L 967 709.7184988178484 L 968 708.0489251149356 L 969 706.3562098621817 L 970 704.6404810523727 L 971 702.9018684184382 L 972 701.140503423643 L 973 699.3565192516464 L 974 697.5500507964325 L 975 695.7212346521083 L 976 693.8702091025768 L 977 691.9971141110817 L 978 690.1020913096215 L 979 688.1852839882426 L 980 686.246837084203 L 981 684.2868971710149 L 982 682.3056124473595 L 983 680.303132725882 L 984 678.2796094218654 L 985 676.235195541778 L 986 674.1700456717069 L 987 672.0843159656672 L 988 669.9781641337969 L 989 667.851749430429 L 990 665.7052326420517 L 991 663.5387760751494 L 992 661.3525435439319 L 993 659.146700357946 L 994 656.9214133095752 L 995 654.6768506614317 L 996 652.4131821336283 L 997 650.1305788909491 L 998 647.8292135299046 L 999 645.5092600656835 L 1000 643.1708939189921 L 1001 640.8142919027912 L 1002 638.439632208928 L 1003 636.0470943946594 L 1004 633.6368593690773 L 1005 631.209109379428 L 1006 628.7640279973338 L 1007 626.3018001049093 L 1008 623.8226118807844 L 1009 621.3266507860249 L 1010 618.81410554996 L 1011 616.2851661559092 L 1012 613.7400238268177 L 1013 611.1788710107994 L 1014 608.6019013665816 L 1015 606.0093097488644 L 1016 603.4012921935853 L 1017 600.7780459030986 L 1018 598.139769231261 L 1019 595.4866616684344 L 1020 592.8189238264046 L 1021 590.136757423207 L 1022 587.4403652678778 L 1023 584.7299512451173 L 1024 582.0057202998747 L 1025 579.2678784218494 L 1026 576.5166326299169 L 1027 573.7521909564738 L 1028 570.9747624317107 L 1029 568.1845570678028 L 1030 565.3817858430315 L 1031 562.566660685834 L 1032 559.7393944587744 L 1033 556.9002009424511 L 1034 554.0492948193303 L 1035 551.1868916575158 L 1036 548.3132078944461 L 1037 545.4284608205289 L 1038 542.5328685627143 L 1039 539.6266500679968 L 1040 536.710025086863 L 1041 533.7832141566734 L 1042 530.8464385849896 L 1043 527.8999204328371 L 1044 524.9438824979154 L 1045 521.9785482977537 L 1046 519.0041420528064 L 1047 516.0208886695007 L 1048 513.02901372323 L 1049 510.02874344129964 L 1050 507.02030468581665 L 1051 504.0039249365391 L 1052 500.9798322736736 L 1053 497.9482553606323 L 1054 494.9094234267385 L 1055 491.8635662498961 L 1056 488.8109141392167 L 1057 485.7516979176013 L 1058 482.68614890428967 L 1059 479.61449889736787 L 1060 476.53698015624366 L 1061 473.4538253840809 L 1062 470.3652677102056 L 1063 467.27154067248 L 1064 464.17287819964025 L 1065 461.06951459361056 L 1066 457.96168451178545 L 1067 454.84962294928897 L 1068 451.733565221202 L 1069 448.6137469447717 L 1070 445.4904040215942 L 1071 442.36377261977987 L 1072 439.2340891560917 L 1073 436.1015902780713 L 1074 432.96651284614614 L 1075 429.82909391571656 L 1076 426.68957071923336 L 1077 423.5481806482584 L 1078 420.40516123551697 L 1079 417.2607501369335 L 1080 414.1151851136631 L 1081 410.96870401411553 L 1082 407.8215447559668 L 1083 404.67394530817165 L 1084 401.5261436729688 L 1085 398.37837786788685 L 1086 395.2308859077434 L 1087 392.0839057866502 L 1088 388.93767546001607 L 1089 385.79243282655705 L 1090 382.64841571030377 L 1091 379.50586184262096 L 1092 376.36500884423305 L 1093 373.22609420725354 L 1094 370.08935527722923 L 1095 366.9550292351928 L 1096 363.8233530797309 L 1097 360.69456360906014 L 1098 357.5688974031235 L 1099 354.44659080570386 L 1100 351.327879906549 L 1101 348.2130005235226 L 1102 345.102188184772 L 1103 341.9956781109212 L 1104 338.89370519728135 L 1105 335.79650399609216 L 1106 332.7043086987846 L 1107 329.6173531182759 L 1108 326.5358706712859 L 1109 323.4600943606897 L 1110 320.39025675790094 L 1111 317.3265899852827 L 1112 314.269325698598 L 1113 311.21869506949264 L 1114 308.1749287680174 L 1115 305.13825694518295 L 1116 302.1089092155585 L 1117 299.0871146399122 L 1118 296.0731017078869 L 1119 293.0670983207257 L 1120 290.0693317740382 L 1121 287.0800287406164 L 1122 284.09941525329117 L 1123 281.12771668784376 L 1124 278.1651577459628 L 1125 275.2119624382562 L 1126 272.26835406730936 L 1127 269.3345552108019 L 1128 266.41078770468005 L 1129 263.4972726263784 L 1130 260.59423027810647 L 1131 257.70188017018916 L 1132 254.8204410044715 L 1133 251.95013065777763 L 1134 249.09116616543864 L 1135 246.2437637048831 L 1136 243.4081385792876 L 1137 240.58450520129927 L 1138 237.77307707682192 L 1139 234.9740667888744 L 1140 232.18768598151294 L 1141 229.41414534383014 L 1142 226.65365459402287 L 1143 223.9064224635369 L 1144 221.17265668128056 L 1145 218.4525639579191 L 1146 215.74634997024643 L 1147 213.0542193456295 L 1148 210.37637564653787 L 1149 207.71302135515066 L 1150 205.06435785804814 L 1151 202.43058543098073 L 1152 199.81190322372726 L 1153 197.20850924503776 L 1154 194.62060034765847 L 1155 192.04837221344872 L 1156 189.49201933858384 L 1157 186.95173501885068 L 1158 184.42771133502856 L 1159 181.92013913836675 L 1160 179.42920803615527 L 1161 176.95510637738462 L 1162 174.4980212385061 L 1163 172.0581384092854 L 1164 169.6356423787559 L 1165 167.23071632126621 L 1166 164.8435420826313 L 1167 162.4743001663817 L 1168 160.1231697201166 L 1169 157.7903285219551 L 1170 155.47595296709508 L 1171 153.18021805447677 L 1172 150.90329737354745 L 1173 148.64536309113768 L 1174 146.406585938442 L 1175 144.18713519811132 L 1176 141.9871786914499 L 1177 139.80688276572727 L 1178 137.6464122816011 L 1179 135.5059306006491 L 1180 133.38559957301823 L 1181 131.28557952518577 L 1182 129.20602924783788 L 1183 127.14710598386085 L 1184 125.10896541645224 L 1185 123.09176165734885 L 1186 121.09564723517536 L 1187 119.12077308390809 L 1188 117.16728853146412 L 1189 115.23534128841072 L 1190 113.32507743679452 L 1191 111.43664141909653 L 1192 109.57017602731042 L 1193 107.7258223921462 L 1194 105.90371997235684 L 1195 104.10400654419442 L 1196 102.32681819099338 L 1197 100.5722892928784 L 1198 98.84055251660521 L 1199 97.1317388055279 L 1200 95.44597736969968 L 1201 93.78339567610033 L 1202 92.14411943899972 L 1203 90.52827261045098 L 1204 88.93597737091955 L 1205 87.36735412004265 L 1206 85.82252146752631 L 1207 84.30159622417784 L 1208 82.80469339307132 L 1209 81.3319261608533 L 1210 79.88340588918322 L 1211 78.45924210631472 L 1212 77.05954249881131 L 1213 75.68441290340542 L 1214 74.33395729899581 L 1215 73.0082777987842 L 1216 71.70747464255476 L 1217 70.43164618909441 L 1218 69.18088890875634 L 1219 67.95529737616403 L 1220 66.75496426306108 L 1221 65.57998033130366 L 1222 64.43043442599827 L 1223 63.30641346878264 L 1224 62.20800245125383 L 1225 61.13528442854249 L 1226 60.088340513031255 L 1227 59.067249868222405 L 1228 58.072089702751725 L 1229 57.10293526455126 L 1230 56.159859835158045 L 1231 55.242934724174006 L 1232 54.352229263874165 L 1233 53.48781080396333 L 1234 52.649744706484114 L 1235 51.83809434087419 L 1236 51.05292107917563 L 1237 50.294284291393126 L 1238 49.56224134100546 L 1239 48.85684758062786 L 1240 48.178156347826985 L 1241 47.52621896108707 L 1242 46.90108471593004 L 1243 46.302800881188375 L 1244 45.73141269543021 L 1245 45.186963363539064 L 1246 44.66949405344684 L 1247 44.179043893021515 L 1248 43.715649967107424 L 1249 43.27934731472209 L 1250 42.87016892640651 L 1251 42.48814574173031 L 1252 42.13330664695269 L 1253 41.80567847283805 L 1254 41.50528599262719 L 1255 41.23215192016414 L 1256 40.9862969081787 L 1257 40.76773954672467 L 1258 40.576496361774616 L 1259 40.412581813969496 L 1260 40.27600829752612 L 1261 40.166786139299234 L 1262 40.084923598001296 L 1263 40.03042686357736 L 1264 40.003300056737544 L 1265 40.00354522864535 L 1266 40.031162360762266 L 1267 40.086149364849575 L 1268 40.16850208312593 L 1269 40.27821428858192 L 1270 40.41527768545092 L 1271 40.579681909836324 L 1272 40.77141453049501 L 1273 40.99046104977771 L 1274 41.23680490472498 L 1275 41.51042746831956 L 1276 41.811308050895036 L 1277 42.139423901699956 L 1278 42.494750210618406 L 1279 42.87726011004588 L 1280 43.28692467692076 L 1281 43.723712934911475 L 1282 44.18759185675873 L 1283 44.67852636677236 L 1284 45.19647934348444 L 1285 45.74141162245536 L 1286 46.31328199923547 L 1287 46.91204723248097 L 1288 47.53766204722308 L 1289 48.19007913829216 L 1290 48.86924917389348 L 1291 49.57512079933872 L 1292 50.3076406409283 L 1293 51.066753309987064 L 1294 51.852401407053094 L 1295 52.664525526217346 L 1296 53.503064259615996 L 1297 54.36795420207295 L 1298 55.259129955895105 L 1299 56.17652413581686 L 1300 57.12006737409558 L 1301 58.08968832575596 L 1302 59.085313673985866 L 1303 60.106868135679804 L 1304 61.15427446713028 L 1305 62.22745346987023 L 1306 63.32632399666011 L 1307 64.45080295762489 L 1308 65.60080532653524 L 1309 66.77624414723851 L 1310 67.97703054023293 L 1311 69.20307370938741 L 1312 70.45428094880856 L 1313 71.73055764984952 L 1314 73.03180730826404 L 1315 74.3579315315028 L 1316 75.7088300461545 L 1317 77.08440070552712 L 1318 78.484539497372 L 1319 79.90914055174767 L 1320 81.35809614902661 L 1321 82.83129672803949 L 1322 84.32863089435887 L 1323 85.84998542872364 L 1324 87.39524529559907 L 1325 88.96429365187538 L 1326 90.55701185570172 L 1327 92.17327947545886 L 1328 93.81297429886479 L 1329 95.47597234221433 L 1330 97.16214785975632 L 1331 98.87137335320006 L 1332 100.60351958135709 L 1333 102.35845556991183 L 1334 104.1360486213274 L 1335 105.9361643248779 L 1336 107.75866656681234 L 1337 109.60341754064547 L 1338 111.47027775757999 L 1339 113.3591060570526 L 1340 115.26975961740686 L 1341 117.20209396669446 L 1342 119.15596299359794 L 1343 121.13121895847951 L 1344 123.12771250455052 L 1345 125.14529266916753 L 1346 127.18380689524582 L 1347 129.24310104279346 L 1348 131.32301940056914 L 1349 133.4234046978545 L 1350 135.54409811634645 L 1351 137.68493930216482 L 1352 139.84576637797943 L 1353 142.02641595524886 L 1354 144.2267231465758 L 1355 146.44652157817282 L 1356 148.68564340244524 L 1357 150.9439193106817 L 1358 153.2211785458545 L 1359 155.51724891553422 L 1360 157.8319568049078 L 1361 160.16512718990748 L 1362 162.5165836504427 L 1363 164.88614838374323 L 1364 167.27364221780186 L 1365 169.67888462492076 L 1366 172.101693735365 L 1367 174.54188635111234 L 1368 176.9992779597066 L 1369 179.4736827482074 L 1370 181.96491361724298 L 1371 184.47278219515584 L 1372 186.997098852247 L 1373 189.53767271511276 L 1374 192.09431168108028 L 1375 194.66682243273192 L 1376 197.25501045252088 L 1377 199.8586800374828 L 1378 202.47763431403135 L 1379 205.11167525284577 L 1380 207.76060368384256 L 1381 210.4242193112384 L 1382 213.10232072869422 L 1383 215.7947054345421 L 1384 218.50116984710093 L 1385 221.22150932006758 L 1386 223.95551815799217 L 1387 226.7029896318294 L 1388 229.46371599457325 L 1389 232.23748849696398 L 1390 235.0240974032709 L 1391 237.82333200715445 L 1392 240.63498064759648 L 1393 243.4588307249058 L 1394 246.29466871679136 L 1395 249.142280194511 L 1396 252.0014498390829 L 1397 254.8719614575679 L 1398 257.7535979994143 L 1399 260.6461415728733 L 1400 263.5493734614733 L 1401 266.4630741405556 L 1402 269.3870232938773 L 1403 272.320999830268 L 1404 275.26478190034845 L 1405 278.21814691330303 L 1406 281.18087155371427 L 1407 284.152731798447 L 1408 287.13350293358553 L 1409 290.12295957142885 L 1410 293.12087566753087 L 1411 296.1270245377935 L 1412 299.1411788756046 L 1413 302.1631107690295 L 1414 305.1925917180416 L 1415 308.2293926518015 L 1416 311.2732839459753 L 1417 314.32403544010134 L 1418 317.38141645499155 L 1419 320.4451958101721 L 1420 323.51514184136767 L 1421 326.5910224180159 L 1422 329.6726049608209 L 1423 332.75965645933735 L 1424 335.8519434895925 L 1425 338.9492322317348 L 1426 342.051288487712 L 1427 345.15787769898327 L 1428 348.2687649642529 L 1429 351.38371505723325 L 1430 354.50249244442847 L 1431 357.6248613029481 L 1432 360.7505855383359 L 1433 363.8794288024231 L 1434 367.0111545111972 L 1435 370.1455258626948 L 1436 373.282305854905 L 1437 376.42125730368855 L 1438 379.56214286071554 L 1439 382.70472503141013 L 1440 385.8487661929096 L 1441 388.9940286120292 L 1442 392.1402744632422 L 1443 395.2872658466606 L 1444 398.43476480602214 L 1445 401.5825333466864 L 1446 404.73033345362836 L 1447 407.87792710943677 L 1448 411.0250763123091 L 1449 414.17154309405146 L 1450 417.3170895380699 L 1451 420.46147779736145 L 1452 423.6044701124959 L 1453 426.74582882959794 L 1454 429.8853164183149 L 1455 433.0226954897754 L 1456 436.15772881454325 L 1457 439.29017934055264 L 1458 442.4198102110339 L 1459 445.5463847824205 L 1460 448.6696666422465 L 1461 451.7894196270207 L 1462 454.90540784008203 L 1463 458.01739566944025 L 1464 461.1251478055891 L 1465 464.2284292593002 L 1466 467.327005379389 L 1467 470.4206418704614 L 1468 473.50910481062726 L 1469 476.59216066918924 L 1470 479.66957632429876 L 1471 482.7411190805868 L 1472 485.8065566867571 L 1473 488.86565735314554 L 1474 491.9181897692506 L 1475 494.9639231212213 L 1476 498.0026271093106 L 1477 501.0340719652874 L 1478 504.0580284698137 L 1479 507.0742679697747 L 1480 510.08256239556664 L 1481 513.0826842783455 L 1482 516.0744067672246 L 1483 519.0575036464282 L 1484 522.0317493523953 L 1485 524.996918990838 L 1486 527.9527883537446 L 1487 530.899133936334 L 1488 533.8357329539535 L 1489 536.7623633589278 L 1490 539.678803857347 L 1491 542.5848339257984 L 1492 545.4802338280438 L 1493 548.3647846316326 L 1494 551.2382682244573 L 1495 554.100467331244 L 1496 556.9511655299839 L 1497 559.7901472682968 L 1498 562.6171978797279 L 1499 565.4321035999831 L 1500 568.2346515830901 L 1501 571.0246299174938 L 1502 573.8018276420775 L 1503 576.5660347621176 L 1504 579.317042265161 L 1505 582.0546421368272 L 1506 584.77862737654 L 1507 587.4887920131789 L 1508 590.1849311206527 L 1509 592.8668408333937 L 1510 595.5343183617758 L 1511 598.1871620074459 L 1512 600.825171178576 L 1513 603.4481464050293 L 1514 606.0558893534453 L 1515 608.6482028422354 L 1516 611.2248908564907 L 1517 613.785758562807 L 1518 616.3306123240147 L 1519 618.8592597138212 L 1520 621.3715095313592 L 1521 623.867171815647 L 1522 626.3460578599513 L 1523 628.8079802260536 L 1524 631.2527527584268 L 1525 633.6801905983087 L 1526 636.0901101976817 L 1527 638.4823293331484 L 1528 640.8566671197141 L 1529 643.212944024462 L 1530 645.5509818801293 L 1531 647.870603898577 L 1532 650.1716346841611 L 1533 652.4539002469925 L 1534 654.7172280160925 L 1535 656.9614468524439 L 1536 659.1863870619301 L 1537 661.3918804081666 L 1538 663.5777601252204 L 1539 665.743860930223" stroke-linecap="round" stroke-linejoin="round" stroke-miterlimit="10" stroke-width="8"/></g></svg>